<?xml version="1.0"?>
<svg xmlns="http://www.w3.org/2000/svg" id="Layer_1" enable-background="new 0 0 480 480" height="512px" viewBox="0 0 480 480" width="512px"><g><path d="m346.579 229.688c-5.863-5.863-15.351-5.863-21.212 0-5.861 5.861-5.863 15.351 0 21.214 9.449 9.448 25.606 2.663 25.606-10.607 0-4.006-1.56-7.772-4.393-10.605 0 .001 0-.002-.001-.002zm26.164-26.163c3.125 3.125 3.124 8.19 0 11.314-3.125 3.124-8.189 3.123-11.313 0-14.069-14.069-36.84-14.072-50.911-.001-3.125 3.125-8.19 3.124-11.314.001-3.124-3.124-3.125-8.189 0-11.313 20.319-20.322 53.213-20.325 73.538-.001zm29.698-29.698c-15.93-15.929-36.57-25.432-58.78-27.219-2.589-20.612-18.598-37.103-38.982-40.409l-10.918-78.602c-2.185-15.733-15.812-27.597-31.696-27.597h-104.873c-15.884 0-29.51 11.864-31.696 27.598l-4.154 29.905c-.626 1.383-.852 2.867-.619 4.457l-6.145 44.24c-22.289 3.616-39.363 22.99-39.363 46.283v175.035c0 23.293 17.074 42.667 39.363 46.283l6.145 44.24c-.233 1.587-.008 3.071.619 4.457l4.154 29.905c2.186 15.733 15.813 27.597 31.696 27.597h104.873c15.884 0 29.51-11.864 31.696-27.598l10.918-78.602c22.289-3.616 39.363-22.99 39.363-46.283v-40.517c0-4.418-3.582-8-8-8s-8 3.582-8 8v40.518c0 17.036-13.86 30.896-30.896 30.896h-175.034c-17.036 0-30.896-13.86-30.896-30.896v-175.036c0-17.036 13.86-30.896 30.896-30.896h120.207c4.418 0 8-3.582 8-8s-3.582-8-8-8h-111.502l5.111-36.793h49.701c4.418 0 8-3.582 8-8s-3.582-8-8-8h-47.479l3.194-22.994c1.093-7.866 7.906-13.799 15.848-13.799h104.873c7.942 0 14.755 5.933 15.848 13.799l10.527 75.787h-5.881c-4.418 0-8 3.582-8 8s3.582 8 8 8h14.586c15.052 0 27.617 10.821 30.342 25.091-21.906 1.948-42.244 11.412-57.982 27.15-3.125 3.125-3.125 8.19 0 11.314 3.124 3.123 8.189 3.123 11.313 0 30.482-30.484 79.822-30.489 110.309 0 3.125 3.124 8.189 3.123 11.313 0 3.126-3.124 3.126-8.189.001-11.314zm-124.527 276.374c-1.093 7.866-7.906 13.799-15.848 13.799h-104.874c-7.942 0-14.755-5.933-15.848-13.799l-3.194-22.994h47.479c4.418 0 8-3.582 8-8s-3.582-8-8-8h-49.701l-5.111-36.793h157.624z" data-original="#000000" class="active-path" data-old_color="#000000" fill="#FFEE00"/></g> </svg>
