<?xml version="1.0"?>
<svg xmlns="http://www.w3.org/2000/svg" xmlns:xlink="http://www.w3.org/1999/xlink" version="1.1" id="Capa_1" x="0px" y="0px" viewBox="0 0 512.002 512.002" style="enable-background:new 0 0 512.002 512.002;" xml:space="preserve" width="512px" height="512px"><g><g>
	<g>
		<path d="M396.019,174.558h-14.891c-1.416,0-2.808,0.096-4.179,0.264v-14.318c0-28.11-19.292-51.798-45.331-58.521l-1.071-3.062    c-5.033-14.399-6.06-29.907-2.975-44.847c2.748-13.302-0.595-26.971-9.174-37.502C309.822,6.04,297.112,0,283.529,0H178.712    c-13.54,0-26.224,6.009-34.801,16.487c-8.577,10.477-11.962,24.099-9.287,37.374l0.123,0.611    c2.902,14.401,1.978,29.379-2.671,43.314l-1.415,4.239c-25.965,6.774-45.187,30.422-45.187,58.48v191.452    c0,28.173,19.379,51.901,45.506,58.563l0.895,2.561c5.033,14.399,6.06,29.907,2.975,44.847    c-2.748,13.302,0.595,26.971,9.174,37.502c8.578,10.531,21.288,16.572,34.87,16.572h104.818c13.54,0,26.224-6.009,34.801-16.486    c8.577-10.477,11.962-24.099,9.287-37.374l-0.123-0.611c-2.902-14.402-1.979-29.38,2.671-43.314l1.245-3.732    c26.052-6.715,45.357-30.409,45.357-58.528v-60.322c1.371,0.168,2.763,0.264,4.179,0.264h14.891    c17.962,0,30.509-14.096,30.509-34.281V208.84C426.528,188.656,413.982,174.558,396.019,174.558z M164.254,48.523l-0.123-0.611    c-0.884-4.39,0.235-8.894,3.072-12.359c2.836-3.465,7.031-5.452,11.509-5.452H283.53c4.492,0,8.695,1.998,11.532,5.48    c2.837,3.482,3.942,8.003,3.033,12.402c-3.569,17.271-3.083,35.104,1.359,52.089H162.781    C167.174,83.269,167.695,65.598,164.254,48.523z M298.169,463.477l0.123,0.611c0.884,4.389-0.235,8.894-3.071,12.359    c-2.836,3.465-7.031,5.452-11.509,5.452H178.894c-4.492,0-8.695-1.998-11.532-5.479c-2.837-3.483-3.942-8.004-3.033-12.403    c3.537-17.117,3.086-34.782-1.245-51.629h136.445C295.246,429.053,294.759,446.556,298.169,463.477z M346.848,208.84v48.777    v94.338c0,14.94-10.862,27.384-25.101,29.871h-181.07c-14.24-2.486-25.101-14.929-25.101-29.871V160.504    c0-16.724,13.607-30.33,30.331-30.33h170.61c16.724,0,30.331,13.606,30.331,30.33V208.84z M396.427,257.617    c0,2.081-0.328,3.457-0.596,4.18h-14.702c-2.305,0-4.179-1.875-4.179-4.18V208.84c0-2.305,1.874-4.18,4.179-4.18h14.702    c0.268,0.723,0.596,2.099,0.596,4.18V257.617z" data-original="#000000" class="active-path" data-old_color="#000000" fill="#FFEE00"/>
	</g>
</g><g>
	<g>
		<path d="M313.845,317.33l-19.673-19.605c7.724-11.81,12.234-25.904,12.234-41.039c0-36.309-25.869-66.688-60.143-73.679v-24.111    c0-8.312-6.739-15.051-15.051-15.051s-15.051,6.739-15.051,15.051v24.111c-34.274,6.992-60.142,37.37-60.142,73.679    c0,41.463,33.732,75.194,75.193,75.194c15.464,0,29.85-4.697,41.815-12.732l19.571,19.504c2.937,2.927,6.781,4.39,10.624,4.39    c3.86,0,7.72-1.476,10.661-4.427C319.75,332.727,319.732,323.197,313.845,317.33z M231.212,301.779    c-24.864,0-45.092-20.229-45.092-45.093c0-19.588,12.557-36.29,30.041-42.501v42.501c0,5.275,2.719,9.909,6.827,12.596    l28.009,27.913C245.02,300.127,238.305,301.779,231.212,301.779z M272.081,275.711l-25.819-25.73v-35.795    c17.485,6.21,30.042,22.912,30.042,42.5C276.304,263.482,274.784,269.925,272.081,275.711z" data-original="#000000" class="active-path" data-old_color="#000000" fill="#FFEE00"/>
	</g>
</g></g> </svg>
